# xmcd CD database file
#
# Track frame offsets:
#	151
#	22590
#	47713
#	70980
#
# Disc length: 1311 seconds
#
# Revision: 0
# Processed by: cddbd v1.5.1PL0 Copyright (c) Steve Scherf et al.
# Submitted via: CDex 1.51
#
DISCID=28051d04
DTITLE=BRAIN DRIVE - MACH-3
DYEAR=2005
DGENRE=Techno
TTITLE0=PIRATES OF BRIAN 〜bd feat captain brian〜
TTITLE1=ABSORD LIES
TTITLE2=ReaLIZe (Bonus Track)
TTITLE3=Somewhere Wonderful (Bonus Track)
EXTD=YEAR: 2005
EXTT0=
EXTT1=
EXTT2=
EXTT3=
PLAYORDER=
